<?xml version="1.0" standalone="no"?>
<!DOCTYPE svg PUBLIC "-//W3C//DTD SVG 20010904//EN"
 "http://www.w3.org/TR/2001/REC-SVG-20010904/DTD/svg10.dtd">
<svg version="1.0" xmlns="http://www.w3.org/2000/svg"
 width="500.000000pt" height="192.000000pt" viewBox="0 0 500.000000 192.000000"
 preserveAspectRatio="xMidYMid meet">

<g transform="translate(0.000000,192.000000) scale(0.100000,-0.100000)"
fill="#000000" stroke="none">
<path d="M0 960 l0 -960 2500 0 2500 0 0 960 0 960 -2500 0 -2500 0 0 -960z
m1608 638 c20 0 22 -5 22 -49 0 -27 -3 -49 -7 -49 -5 1 -17 15 -28 33 -39 62
-127 63 -133 1 -3 -28 1 -33 35 -49 106 -48 124 -59 143 -82 39 -50 20 -117
-42 -149 -37 -19 -116 -21 -147 -4 -16 8 -26 8 -35 0 -16 -13 -26 14 -26 73 0
45 13 48 30 7 17 -42 47 -60 97 -60 30 0 49 6 63 20 39 39 23 59 -83 109 -70
34 -97 65 -97 116 0 65 48 98 130 90 30 -3 65 -6 78 -7z m962 4 c0 -5 -11 -14
-25 -20 -25 -12 -25 -12 -25 -146 0 -161 3 -166 89 -166 59 0 88 17 104 63 4
9 11 17 18 17 6 0 8 -7 5 -16 -3 -9 -6 -33 -6 -55 l0 -39 -165 0 c-91 0 -165
3 -165 8 0 4 10 12 23 17 21 10 22 15 25 158 l3 147 -26 12 c-44 20 -27 28 60
28 47 0 85 -4 85 -8z m-362 -126 c13 -13 18 -39 21 -107 3 -79 5 -91 23 -98
16 -6 17 -9 6 -18 -28 -24 -75 -19 -83 8 l-7 21 -23 -22 c-15 -14 -36 -22 -59
-22 -50 0 -68 17 -64 61 3 33 8 38 68 69 60 30 65 36 65 65 0 27 -4 32 -26 35
-19 2 -28 -3 -37 -23 -9 -19 -18 -25 -35 -23 -32 4 -30 48 3 66 34 17 126 10
148 -12z m735 10 c49 -21 79 -59 84 -108 8 -79 -56 -142 -145 -140 -139 2
-182 186 -57 243 48 22 75 23 118 5z m297 2 c14 1 38 2 54 4 35 4 61 -26 36
-42 -9 -6 -18 -6 -24 0 -6 6 -18 10 -28 10 -15 0 -17 -5 -12 -25 14 -56 -42
-115 -110 -115 -15 0 -26 -6 -26 -14 0 -9 18 -15 57 -19 76 -8 107 -32 111
-84 4 -60 -28 -83 -119 -83 -80 0 -117 14 -126 48 -10 43 24 73 64 58 13 -5
14 -9 5 -18 -21 -21 -13 -48 15 -59 38 -14 90 -3 104 22 17 32 -12 56 -79 64
-31 4 -65 11 -74 16 -24 13 -23 56 1 71 19 12 19 12 0 36 -26 34 -25 83 4 109
31 28 47 33 87 26 19 -3 46 -5 60 -5z m319 -16 c14 -10 35 -34 45 -53 52 -94
-48 -204 -161 -179 -56 13 -103 68 -103 120 0 66 36 117 95 133 35 10 97 -1
124 -21z m-1769 -73 c0 -101 10 -129 45 -129 39 0 55 35 55 118 0 65 -2 74
-20 79 -39 10 -19 23 35 23 l55 0 0 -102 c0 -108 3 -120 34 -131 26 -10 19
-13 -36 -19 -41 -5 -47 -3 -52 15 -5 19 -7 20 -23 5 -26 -22 -58 -28 -98 -17
-49 14 -65 50 -65 144 0 68 -2 77 -20 82 -39 10 -19 23 35 23 l55 0 0 -91z
m70 -649 l0 -110 -600 0 -600 0 0 110 0 110 600 0 600 0 0 -110z m1250 0 l0
-110 -605 0 -605 0 0 110 0 110 605 0 605 0 0 -110z m1230 0 l0 -110 -600 0
-600 0 0 110 0 110 600 0 600 0 0 -110z m-2305 -420 c3 -5 -1 -10 -9 -10 -9 0
-16 5 -16 10 0 6 4 10 9 10 6 0 13 -4 16 -10z m-65 -17 c0 -13 -3 -14 -12 -5
-7 7 -18 12 -25 12 -23 0 -13 -25 17 -42 36 -21 40 -55 8 -63 -42 -9 -68 -2
-68 19 0 18 1 18 20 1 18 -16 50 -15 50 2 0 4 -14 16 -30 25 -28 16 -39 46
-23 61 3 4 19 7 35 7 20 0 28 -5 28 -17z m506 8 c-3 -5 1 -14 8 -20 16 -13 32
2 21 19 -4 6 6 10 22 10 24 -1 25 -2 11 -11 -36 -21 -40 -45 -12 -78 l26 -31
-27 0 c-14 0 -24 4 -21 9 8 12 -21 34 -34 26 -6 -4 -9 -13 -6 -21 4 -10 -2
-14 -19 -14 l-24 0 24 25 c31 30 31 36 0 69 l-24 26 30 0 c17 0 28 -4 25 -9z
m140 0 c-3 -5 1 -14 8 -20 16 -13 32 2 21 19 -4 6 6 10 22 10 24 -1 25 -2 11
-11 -34 -19 -39 -45 -17 -73 26 -33 52 -33 74 0 16 24 16 27 -2 47 -10 12 -22
25 -28 29 -5 4 5 8 23 8 17 0 31 -3 31 -7 -4 -27 1 -35 16 -23 8 7 12 16 9 21
-3 5 5 9 17 9 l22 0 -22 -24 c-24 -26 -23 -35 12 -73 l20 -23 -26 0 c-17 0
-27 5 -27 14 0 8 -5 18 -10 21 -13 8 -42 -14 -34 -26 3 -5 -18 -9 -46 -9 -28
0 -49 4 -46 9 8 12 -21 34 -34 26 -6 -4 -9 -13 -6 -21 4 -10 -2 -14 -19 -14
l-24 0 24 25 c31 30 31 36 0 69 l-24 26 30 0 c17 0 28 -4 25 -9z m283 2 c-4
-27 1 -35 16 -23 8 7 12 16 9 21 -3 5 5 9 17 9 l22 0 -22 -24 c-24 -26 -23
-35 12 -73 l20 -23 -26 0 c-17 0 -27 5 -27 14 0 8 -5 18 -10 21 -13 8 -42 -14
-34 -26 3 -5 -4 -9 -15 -9 -19 0 -19 1 4 26 31 33 31 33 0 67 l-26 27 31 0
c16 0 29 -3 29 -7z m140 0 c-4 -27 1 -35 16 -23 8 7 12 16 9 21 -3 5 5 9 17 9
l22 0 -22 -24 c-24 -26 -23 -35 12 -73 l20 -23 -26 0 c-17 0 -27 5 -27 14 0 8
-5 18 -10 21 -13 8 -42 -14 -34 -26 3 -5 -4 -9 -15 -9 -19 0 -19 1 4 26 31 33
31 33 0 67 l-26 27 31 0 c16 0 29 -3 29 -7z m-877 -78 c4 -32 2 -35 -22 -35
-17 0 -21 3 -12 9 18 11 11 56 -8 56 -10 0 -15 -10 -15 -32 0 -23 -5 -33 -15
-33 -11 0 -15 11 -15 37 0 32 4 39 25 44 37 8 57 -6 62 -46z m82 49 c24 -9 19
-24 -6 -21 -18 2 -23 -3 -23 -23 0 -20 5 -25 23 -24 14 0 19 -3 13 -9 -5 -5
-21 -7 -35 -3 -21 5 -26 13 -26 36 0 17 7 33 18 39 21 13 17 12 36 5z m116
-24 c0 -6 -12 -10 -26 -10 -19 0 -25 -4 -22 -17 2 -11 12 -18 25 -17 12 0 20
-3 17 -8 -8 -12 -48 -10 -62 4 -31 31 11 88 50 67 10 -5 18 -14 18 -19z m-318
-20 c3 -35 1 -40 -17 -40 -17 0 -20 6 -20 40 0 30 4 40 16 40 12 0 18 -11 21
-40z"/>
<path d="M2116 1349 c-45 -35 -26 -86 23 -59 15 8 21 21 21 45 0 40 -7 43 -44
14z"/>
<path d="M2864 1462 c-21 -14 -34 -51 -34 -99 0 -61 21 -93 60 -93 40 0 60 32
60 96 0 75 -44 124 -86 96z"/>
<path d="M3140 1444 c-19 -49 14 -110 45 -84 15 13 20 65 9 94 -10 25 -43 19
-54 -10z"/>
<path d="M3448 1459 c-23 -13 -41 -82 -32 -122 9 -44 32 -67 65 -67 40 0 63
46 57 112 -7 72 -44 104 -90 77z"/>
<path d="M2318 273 c7 -3 16 -2 19 1 4 3 -2 6 -13 5 -11 0 -14 -3 -6 -6z"/>
</g>
</svg>
