<?xml version="1.0" standalone="no"?>
<!DOCTYPE svg PUBLIC "-//W3C//DTD SVG 20010904//EN"
 "http://www.w3.org/TR/2001/REC-SVG-20010904/DTD/svg10.dtd">
<svg version="1.0" xmlns="http://www.w3.org/2000/svg"
 width="32.000000pt" height="32.000000pt" viewBox="0 0 32.000000 32.000000"
 preserveAspectRatio="xMidYMid meet">

<g transform="translate(0.000000,32.000000) scale(0.100000,-0.100000)"
fill="#000000" stroke="none">
<path d="M72 309 c-39 -15 -58 -104 -27 -129 15 -13 21 -40 8 -40 -3 0 -15 7
-25 17 -11 10 -18 12 -18 4 0 -6 15 -20 33 -31 l32 -20 -40 0 c-33 -1 -37 -2
-22 -11 11 -6 32 -9 47 -5 33 6 54 -12 40 -34 -12 -19 -13 -63 -1 -56 4 3 11
18 14 34 5 25 10 27 47 27 37 0 42 -2 47 -27 3 -16 10 -31 14 -34 12 -7 11 37
-1 56 -14 22 7 40 40 34 15 -4 36 -1 47 5 15 9 13 10 -17 11 l-35 1 28 20 c15
11 27 25 27 31 0 6 -8 4 -18 -5 -10 -10 -22 -17 -25 -17 -13 0 -7 27 8 40 31
25 12 114 -27 129 -30 11 -32 8 -17 -21 11 -21 11 -22 -4 -9 -29 23 -21 -19 9
-50 33 -35 24 -55 -16 -34 -21 11 -27 20 -23 35 3 11 1 20 -5 20 -5 0 -12 -9
-15 -20 -7 -26 -27 -26 -34 0 -3 11 -10 20 -15 20 -6 0 -8 -9 -5 -20 4 -15 -2
-24 -23 -35 -40 -21 -49 -1 -16 34 40 42 32 96 -12 80z m19 -32 c-10 -9 -11
-8 -5 6 3 10 9 15 12 12 3 -3 0 -11 -7 -18z"/>
<path d="M50 70 c-34 -19 -34 -19 -9 -20 15 0 32 7 39 15 20 24 9 25 -30 5z"/>
<path d="M230 81 c0 -16 29 -33 51 -29 19 3 17 5 -14 20 -21 10 -37 14 -37 9z"/>
</g>
</svg>
